<?xml version="1.0" standalone="no"?>
<!DOCTYPE svg PUBLIC "-//W3C//DTD SVG 20010904//EN"
 "http://www.w3.org/TR/2001/REC-SVG-20010904/DTD/svg10.dtd">
<svg version="1.0" xmlns="http://www.w3.org/2000/svg"
 width="512.000000pt" height="512.000000pt" viewBox="0 0 512.000000 512.000000"
 preserveAspectRatio="xMidYMid meet">
<metadata>
Created by potrace 1.14, written by Peter Selinger 2001-2017
</metadata>
<g transform="translate(0.000000,512.000000) scale(0.100000,-0.100000)"
fill="#000000" stroke="none">
<path d="M330 5021 c-86 -27 -164 -93 -208 -176 l-27 -50 -3 -2217 -2 -2217
22 -58 c29 -79 112 -162 191 -191 l58 -22 2199 0 2199 0 58 22 c79 29 162 112
191 191 l22 58 -2 2217 -3 2217 -26 50 c-35 66 -88 119 -152 153 l-52 27
-2220 2 c-1221 1 -2231 -2 -2245 -6z m4243 -350 c51 -20 56 -105 8 -130 -13
-8 -259 -11 -767 -11 l-748 0 -23 22 c-31 29 -30 72 2 103 l24 25 740 0 c424
0 750 -4 764 -9z m-2093 -1646 l0 -805 -1020 0 -1020 0 0 789 0 790 22 15 c20
14 133 16 1020 16 l998 0 0 -805z m2178 789 l22 -15 0 -790 0 -789 -1020 0
-1020 0 0 805 0 805 998 0 c887 0 1000 -2 1020 -16z m-2178 -2569 l0 -805
-1002 0 c-918 0 -1003 1 -1020 17 -17 15 -18 53 -18 805 l0 788 1020 0 1020 0
0 -805z m2200 18 c0 -718 -1 -788 -17 -805 -15 -17 -60 -18 -1020 -18 l-1003
0 0 805 0 805 1020 0 1020 0 0 -787z"/>
<path d="M1334 3600 c-282 -74 -474 -325 -474 -619 0 -189 75 -353 217 -480
120 -108 252 -155 423 -155 97 0 128 5 197 28 93 30 211 104 268 167 139 155
200 363 161 559 -48 247 -239 449 -476 504 -89 21 -228 19 -316 -4z m259 -370
c178 -67 225 -313 83 -437 -62 -56 -94 -68 -176 -68 -64 0 -82 4 -128 29 -88
49 -134 129 -134 233 -1 110 70 208 174 244 69 24 115 24 181 -1z"/>
<path d="M3465 3606 c-189 -38 -324 -113 -463 -260 -65 -70 -92 -108 -132
-189 -70 -143 -92 -233 -91 -382 0 -134 18 -221 72 -350 25 -60 35 -75 48 -70
13 5 239 132 249 140 1 1 -8 26 -22 56 -50 114 -58 227 -26 353 26 102 69 177
146 253 210 207 544 205 755 -6 115 -115 165 -245 157 -411 -5 -89 -15 -126
-64 -235 -4 -9 221 -146 253 -153 16 -4 73 114 98 203 26 94 31 275 11 376
-35 170 -115 320 -235 439 -107 107 -230 180 -372 220 -96 28 -285 35 -384 16z"/>
<path d="M3910 3028 c-12 -4 -66 -33 -119 -63 -93 -53 -97 -54 -138 -43 -38 9
-48 7 -90 -13 -27 -13 -58 -39 -70 -58 -44 -65 -22 -163 46 -208 81 -54 206
-7 231 87 9 32 21 43 119 99 133 78 157 115 111 173 -22 29 -56 39 -90 26z"/>
<path d="M980 1987 c-33 -16 -50 -52 -50 -104 l0 -43 -63 0 c-36 0 -68 -5 -75
-12 -9 -9 -12 -155 -12 -594 0 -516 2 -584 16 -598 14 -14 91 -16 703 -16 539
0 691 3 698 13 14 17 25 1166 12 1190 -8 14 -24 17 -79 17 l-70 0 0 51 c0 62
-10 83 -49 99 -59 24 -111 -25 -111 -107 l0 -43 -40 0 -40 0 0 49 c0 64 -31
104 -80 104 -49 0 -80 -40 -80 -104 l0 -49 -40 0 -40 0 0 43 c0 82 -47 127
-109 106 -40 -14 -51 -35 -51 -98 l0 -51 -45 0 -45 0 0 54 c0 70 -22 100 -75
100 -53 0 -75 -30 -75 -100 l0 -54 -45 0 -45 0 0 55 c0 42 -5 60 -20 75 -11
11 -24 20 -29 20 -5 0 -15 2 -23 5 -7 3 -24 -1 -38 -8z"/>
<path d="M3883 2012 c-30 -4 -63 -48 -63 -82 0 -15 9 -39 20 -52 l19 -25 -422
-243 c-232 -133 -434 -256 -449 -271 -16 -17 -28 -41 -28 -55 0 -32 50 -84 82
-84 13 0 221 115 463 255 l439 254 12 -27 c6 -15 19 -34 28 -42 26 -21 83 -18
105 6 20 21 91 217 91 250 0 44 -36 72 -113 88 -123 26 -161 32 -184 28z"/>
<path d="M4202 1518 c-9 -9 -12 -120 -12 -440 0 -493 -11 -448 112 -448 50 0
81 5 96 16 l22 15 0 415 c0 267 -4 422 -10 435 -9 17 -22 19 -103 19 -59 0
-97 -4 -105 -12z"/>
<path d="M3788 1319 c-17 -9 -18 -36 -18 -339 0 -381 -10 -350 114 -350 122 0
116 -20 116 348 0 373 7 352 -113 352 -45 0 -90 -5 -99 -11z"/>
<path d="M3361 1106 c-8 -9 -11 -81 -9 -237 l3 -224 105 0 105 0 3 224 c2 156
-1 228 -9 237 -8 10 -37 14 -99 14 -62 0 -91 -4 -99 -14z"/>
<path d="M2936 904 c-13 -12 -16 -39 -16 -129 0 -139 4 -145 118 -145 113 0
112 -1 112 143 0 82 -4 127 -12 135 -19 19 -183 16 -202 -4z"/>
</g>
</svg>
